# xmcd
#
# Track frame offsets:
#	150
#	11935
#	24649
#	37945
#	49596
#	62886
#	75934
#	90529
#	100790
#	113543
#	121722
#	135308
#	148262
#	163133
#	177056
#	192128
#
# Disc length: 2727 seconds
#
# Revision: 1
# Processed by: cddbd v1.5.2PL0 Copyright (c) Steve Scherf et al.
# Submitted via: audiograbber 1.83.01
#
DISCID=c20aa510
DTITLE=Various Artist - The Singing Cowboys
DYEAR=1900
DGENRE=Country
TTITLE0=Gene Autry - Back In The Saddle Again
TTITLE1=Roy Rogers - Don't Fence Me In
TTITLE2=Rex Allen - Teardrops On My Heart
TTITLE3=Gene Autry - Cool Water
TTITLE4=Roy Rogers - Cowboy Night Herd Song
TTITLE5=Gene Autry - The Yellow Rose Of Texas
TTITLE6=Tex Ritter - Rye Whiskey
TTITLE7=Gene Autry - Blue Eyes Crying In The Rain
TTITLE8=Roy Rogers - Blue Shadows On The Trail
TTITLE9=Gene Autry - I'm An Old Cowhand
TTITLE10=Roy Rogers - Rock Me To Sleep In My Saddle
TTITLE11=Tex Ritter - Goodbye Old Paint
TTITLE12=Gene Autry - Tumbling Tumbleweeds
TTITLE13=Roy Rogers - There's A Roundup In The Sky
TTITLE14=Gene Autry - The Last Round-up
TTITLE15=Tex Ritter - Jingle, Jingle, Jingle
EXTD=
EXTT0=
EXTT1=
EXTT2=
EXTT3=
EXTT4=
EXTT5=
EXTT6=
EXTT7=
EXTT8=
EXTT9=
EXTT10=
EXTT11=
EXTT12=
EXTT13=
EXTT14=
EXTT15=
PLAYORDER=
